<svg width="46" height="12" viewBox="0 0 46 12" fill="none" xmlns="http://www.w3.org/2000/svg">
<path d="M0.98 11V0.92H4.137C4.23033 0.92 4.403 0.922333 4.655 0.927C4.91167 0.931666 5.15667 0.950333 5.39 0.982999C6.17867 1.081 6.84133 1.36333 7.378 1.83C7.91933 2.29667 8.32767 2.88933 8.603 3.608C8.87833 4.322 9.016 5.106 9.016 5.96C9.016 6.81867 8.87833 7.60733 8.603 8.326C8.32767 9.04 7.91933 9.63033 7.378 10.097C6.84133 10.559 6.17867 10.839 5.39 10.937C5.15667 10.9697 4.91167 10.9883 4.655 10.993C4.403 10.9977 4.23033 11 4.137 11H0.98ZM2.478 9.607H4.137C4.29567 9.607 4.48467 9.60233 4.704 9.593C4.92333 9.58367 5.117 9.565 5.285 9.537C5.79833 9.439 6.21367 9.21733 6.531 8.872C6.853 8.522 7.08867 8.09267 7.238 7.584C7.38733 7.07533 7.462 6.534 7.462 5.96C7.462 5.36733 7.385 4.819 7.231 4.315C7.077 3.80633 6.839 3.38167 6.517 3.041C6.19967 2.69567 5.789 2.47633 5.285 2.383C5.117 2.35033 4.921 2.33167 4.697 2.327C4.47767 2.31767 4.291 2.313 4.137 2.313H2.478V9.607ZM13.999 11.21C13.2477 11.21 12.5873 11.0467 12.018 10.72C11.4533 10.3887 11.0123 9.929 10.695 9.341C10.3823 8.74833 10.226 8.06233 10.226 7.283C10.226 6.457 10.38 5.74067 10.688 5.134C11.0007 4.52733 11.4347 4.05833 11.99 3.727C12.5453 3.39567 13.1917 3.23 13.929 3.23C14.699 3.23 15.3547 3.40967 15.896 3.769C16.4373 4.12367 16.841 4.63 17.107 5.288C17.3777 5.946 17.485 6.72767 17.429 7.633H15.966V7.101C15.9567 6.22367 15.7887 5.575 15.462 5.155C15.14 4.735 14.6477 4.525 13.985 4.525C13.2523 4.525 12.7017 4.756 12.333 5.218C11.9643 5.68 11.78 6.34733 11.78 7.22C11.78 8.05067 11.9643 8.69467 12.333 9.152C12.7017 9.60467 13.2337 9.831 13.929 9.831C14.3863 9.831 14.7807 9.72833 15.112 9.523C15.448 9.313 15.7093 9.01433 15.896 8.627L17.331 9.082C17.037 9.75867 16.5913 10.2837 15.994 10.657C15.3967 11.0257 14.7317 11.21 13.999 11.21ZM11.304 7.633V6.492H16.701V7.633H11.304ZM27.8525 11L27.8595 6.289C27.8595 5.743 27.7195 5.31833 27.4395 5.015C27.1595 4.707 26.7908 4.553 26.3335 4.553C26.0535 4.553 25.7968 4.61833 25.5635 4.749C25.3348 4.875 25.1481 5.06633 25.0035 5.323C24.8635 5.575 24.7935 5.89233 24.7935 6.275L24.0865 5.918C24.0771 5.386 24.1891 4.91933 24.4225 4.518C24.6605 4.11667 24.9825 3.80633 25.3885 3.587C25.7945 3.363 26.2495 3.251 26.7535 3.251C27.5701 3.251 28.2025 3.496 28.6505 3.986C29.0985 4.476 29.3225 5.127 29.3225 5.939L29.3155 11H27.8525ZM18.7875 11V3.44H20.0895V5.624H20.2575V11H18.7875ZM23.3235 11L23.3305 6.317C23.3305 5.76633 23.1905 5.33467 22.9105 5.022C22.6351 4.70933 22.2641 4.553 21.7975 4.553C21.3355 4.553 20.9621 4.71167 20.6775 5.029C20.3975 5.34633 20.2575 5.76167 20.2575 6.275L19.5575 5.827C19.5575 5.33233 19.6765 4.89133 19.9145 4.504C20.1525 4.11667 20.4745 3.811 20.8805 3.587C21.2865 3.363 21.7461 3.251 22.2595 3.251C22.7961 3.251 23.2535 3.36533 23.6315 3.594C24.0095 3.818 24.2965 4.133 24.4925 4.539C24.6931 4.945 24.7935 5.41633 24.7935 5.953L24.7865 11H23.3235ZM34.3275 11.21C33.5715 11.21 32.9158 11.0397 32.3605 10.699C31.8051 10.3583 31.3758 9.88933 31.0725 9.292C30.7738 8.69 30.6245 7.997 30.6245 7.213C30.6245 6.42433 30.7785 5.73133 31.0865 5.134C31.3945 4.532 31.8261 4.06533 32.3815 3.734C32.9368 3.398 33.5855 3.23 34.3275 3.23C35.0835 3.23 35.7391 3.40033 36.2945 3.741C36.8498 4.08167 37.2791 4.55067 37.5825 5.148C37.8858 5.74533 38.0375 6.43367 38.0375 7.213C38.0375 8.00167 37.8835 8.697 37.5755 9.299C37.2721 9.89633 36.8428 10.3653 36.2875 10.706C35.7321 11.042 35.0788 11.21 34.3275 11.21ZM34.3275 9.831C35.0508 9.831 35.5898 9.58833 35.9445 9.103C36.3038 8.613 36.4835 7.983 36.4835 7.213C36.4835 6.42433 36.3015 5.79433 35.9375 5.323C35.5781 4.847 35.0415 4.609 34.3275 4.609C33.8375 4.609 33.4338 4.721 33.1165 4.945C32.7991 5.16433 32.5635 5.47 32.4095 5.862C32.2555 6.24933 32.1785 6.69967 32.1785 7.213C32.1785 8.00633 32.3605 8.641 32.7245 9.117C33.0885 9.593 33.6228 9.831 34.3275 9.831ZM42.33 11.203C41.4107 11.203 40.6617 11 40.083 10.594C39.5043 10.188 39.1497 9.61633 39.019 8.879L40.517 8.648C40.6103 9.04 40.825 9.35033 41.161 9.579C41.5017 9.803 41.924 9.915 42.428 9.915C42.8853 9.915 43.2423 9.82167 43.499 9.635C43.7603 9.44833 43.891 9.19167 43.891 8.865C43.891 8.67367 43.8443 8.51967 43.751 8.403C43.6623 8.28167 43.4733 8.16733 43.184 8.06C42.8947 7.95267 42.4537 7.81967 41.861 7.661C41.2123 7.493 40.6967 7.31333 40.314 7.122C39.936 6.926 39.6653 6.69967 39.502 6.443C39.3433 6.18167 39.264 5.86667 39.264 5.498C39.264 5.04067 39.3853 4.64167 39.628 4.301C39.8707 3.96033 40.2113 3.69667 40.65 3.51C41.0933 3.32333 41.6113 3.23 42.204 3.23C42.7827 3.23 43.2983 3.321 43.751 3.503C44.2037 3.685 44.57 3.944 44.85 4.28C45.13 4.61133 45.298 5.001 45.354 5.449L43.856 5.722C43.8047 5.358 43.6343 5.071 43.345 4.861C43.0557 4.651 42.68 4.53667 42.218 4.518C41.7747 4.49933 41.4153 4.574 41.14 4.742C40.8647 4.90533 40.727 5.13167 40.727 5.421C40.727 5.589 40.7783 5.73133 40.881 5.848C40.9883 5.96467 41.1937 6.07667 41.497 6.184C41.8003 6.29133 42.2483 6.41967 42.841 6.569C43.4757 6.73233 43.9797 6.91433 44.353 7.115C44.7263 7.311 44.9923 7.54667 45.151 7.822C45.3143 8.09267 45.396 8.42167 45.396 8.809C45.396 9.55567 45.123 10.1413 44.577 10.566C44.0357 10.9907 43.2867 11.203 42.33 11.203Z" fill="url(#paint0_linear_23_272)"/>
<defs>
<linearGradient id="paint0_linear_23_272" x1="23" y1="-5" x2="23" y2="11" gradientUnits="userSpaceOnUse">
<stop stop-color="#20C997"/>
<stop offset="1" stop-color="#0D6EFD"/>
</linearGradient>
</defs>
</svg>
