<?xml version="1.0" standalone="no"?>
<!DOCTYPE svg PUBLIC "-//W3C//DTD SVG 20010904//EN"
 "http://www.w3.org/TR/2001/REC-SVG-20010904/DTD/svg10.dtd">
<svg version="1.0" xmlns="http://www.w3.org/2000/svg"
 width="512.000000pt" height="388.000000pt" viewBox="0 0 512.000000 388.000000"
 preserveAspectRatio="xMidYMid meet">

<g transform="translate(0.000000,388.000000) scale(0.100000,-0.100000)"
fill="#000000" stroke="none">
<path d="M420 3843 c-177 -20 -333 -151 -397 -335 -17 -51 -18 -122 -18 -1578
0 -1456 1 -1527 18 -1578 55 -158 161 -264 319 -319 51 -17 139 -18 2218 -18
2079 0 2167 1 2218 18 158 55 264 161 319 319 17 51 18 122 18 1578 0 1456 -1
1527 -18 1578 -54 155 -155 257 -313 318 -47 18 -119 19 -2189 20 -1177 1
-2156 -1 -2175 -3z m3640 -327 c-46 -42 -1491 -1176 -1500 -1176 -9 0 -1454
1134 -1500 1176 -12 12 220 14 1500 14 1280 0 1512 -2 1500 -14z m-2447 -1259
l947 -729 948 729 c521 401 953 733 959 737 10 6 13 -263 13 -1328 l0 -1336
-1920 0 -1920 0 0 1336 c0 1065 3 1334 13 1328 6 -5 438 -336 960 -737z"/>
</g>
</svg>
